/* XPM */
static char *ConsultComm[]={
"16 16 2 1",
"# c #0300c4",
". c #ffffff",
"................",
"................",
"....####........",
"...#...#........",
"..#....####.....",
"..#...#...#.....",
"..#..#..........",
"...#.#.#........",
"....###.........",
"......#...#.....",
".......###......",
"................",
"...########.....",
"................",
"................",
"................"};
