/* XPM */
static char * ConsultComm_xpm[] = {
"24 24 100 2",
"  	c None",
". 	c #1C1C1C",
"+ 	c #CBCF00",
"@ 	c #C4C800",
"# 	c #252424",
"$ 	c #2C2B2B",
"% 	c #222222",
"& 	c #101010",
"* 	c #C9CE00",
"= 	c #C0C400",
"- 	c #444444",
"; 	c #565556",
"> 	c #3B3B3A",
", 	c #1F1F1D",
"' 	c #404040",
") 	c #C6CA00",
"! 	c #C4C700",
"~ 	c #0F0F0F",
"{ 	c #5B5B5B",
"] 	c #7A7A7A",
"^ 	c #646464",
"/ 	c #494948",
"( 	c #191919",
"_ 	c #161616",
": 	c #454544",
"< 	c #C4C815",
"[ 	c #C7CB10",
"} 	c #9DA000",
"| 	c #212121",
"1 	c #141515",
"2 	c #1E1E1E",
"3 	c #555555",
"4 	c #727272",
"5 	c #666666",
"6 	c #565656",
"7 	c #383838",
"8 	c #030303",
"9 	c #1A1A23",
"0 	c #38384E",
"a 	c #BABE0F",
"b 	c #BFC315",
"c 	c #0F0E0E",
"d 	c #3B3A3A",
"e 	c #393A3A",
"f 	c #1B1B1B",
"g 	c #4D4E4E",
"h 	c #616161",
"i 	c #5A5A5A",
"j 	c #4B4B4B",
"k 	c #282828",
"l 	c #16170A",
"m 	c #3B3B30",
"n 	c #070606",
"o 	c #212021",
"p 	c #464545",
"q 	c #434242",
"r 	c #454545",
"s 	c #454444",
"t 	c #3B3B3B",
"u 	c #000001",
"v 	c #12121A",
"w 	c #424244",
"x 	c #040404",
"y 	c #090909",
"z 	c #141414",
"A 	c #242424",
"B 	c #2F3030",
"C 	c #333232",
"D 	c #333333",
"E 	c #323232",
"F 	c #2D2D2D",
"G 	c #1F1F1F",
"H 	c #C7CB00",
"I 	c #DADE00",
"J 	c #B1B403",
"K 	c #040403",
"L 	c #333332",
"M 	c #080808",
"N 	c #242323",
"O 	c #262625",
"P 	c #282827",
"Q 	c #1F1E1F",
"R 	c #0B0B0B",
"S 	c #CFD300",
"T 	c #B2B600",
"U 	c #0A0A0A",
"V 	c #151515",
"W 	c #0E0E0E",
"X 	c #070808",
"Y 	c #181818",
"Z 	c #1B1B1A",
"` 	c #060607",
" .	c #CDD000",
"..	c #ADB000",
"+.	c #303030",
"@.	c #070707",
"#.	c #060706",
"$.	c #C5C800",
"%.	c #A3A600",
"&.	c #BBBF00",
"                                                ",
"                                                ",
"                                                ",
"                                                ",
"                                                ",
"                                                ",
"                                    .           ",
"        + @             # $ %         &         ",
"      * =               - ; > ,         . '     ",
"    ) !         ~       { ] ^ / (         _ :   ",
"  < [ }       | 1 2     3 4 5 6 7         8 9 0 ",
"  a b           c d e f g h i j k           l m ",
"                n o ' p q r s t |               ",
"  u v w       x y z A B C D E F . G       H I J ",
"    K L         M _ ( 2 N O P Q R         S T   ",
"      U 2         R V W X Y Z `          ...    ",
"        x +.        @.x   U #.        $.%.      ",
"            ~                       &.          ",
"                                                ",
"                                                ",
"                                                ",
"                                                ",
"                                                ",
"                                                "};
