/* XPM */
static char * ConsultComm_xpm[] = {
"24 24 80 1",
" 	c None",
".	c #00FBC6",
"+	c #00F8BC",
"@	c #00E9AE",
"#	c #00F0AE",
"$	c #00FFCD",
"%	c #00EDB5",
"&	c #00C28B",
"*	c #00F0B1",
"=	c #00CD95",
"-	c #00FFCB",
";	c #00E3A8",
">	c #00C68D",
",	c #00A777",
"'	c #00FFC6",
")	c #00F7B9",
"!	c #00A475",
"~	c #00C78E",
"{	c #00B17E",
"]	c #00FFBF",
"^	c #00D89B",
"/	c #00FCB7",
"(	c #00BD87",
"_	c #00FECC",
":	c #00FBC2",
"<	c #00E7AD",
"[	c #00E1A5",
"}	c #00E4A3",
"|	c #00EFAB",
"1	c #00FEC9",
"2	c #00F4AE",
"3	c #00B27F",
"4	c #00F9C4",
"5	c #00D39B",
"6	c #00E7A8",
"7	c #00E9A7",
"8	c #00AF7D",
"9	c #00FCC4",
"0	c #00B784",
"a	c #00E1A1",
"b	c #00B682",
"c	c #00FFC4",
"d	c #00DDA0",
"e	c #00CB91",
"f	c #00D699",
"g	c #00C58D",
"h	c #00FCBA",
"i	c #00CD92",
"j	c #00B07E",
"k	c #00F3AF",
"l	c #00AA7A",
"m	c #00F5BC",
"n	c #00BB86",
"o	c #00BB85",
"p	c #00FAB4",
"q	c #00E8A6",
"r	c #00C290",
"s	c #00C990",
"t	c #00DA9C",
"u	c #00EFAE",
"v	c #00DF9F",
"w	c #00A778",
"x	c #00AD7C",
"y	c #00CF94",
"z	c #00DEA3",
"A	c #00DC9D",
"B	c #00AE7C",
"C	c #00D598",
"D	c #00BA85",
"E	c #00C48D",
"F	c #00CA91",
"G	c #00FDC2",
"H	c #00B984",
"I	c #00FCC5",
"J	c #00AC7B",
"K	c #00E2A1",
"L	c #00FFC9",
"M	c #00F9C5",
"N	c #00CC92",
"O	c #00CC95",
"                        ",
"     .+@#               ",
"   $%    &*=            ",
"  -;      >,            ",
" ')!      ~{            ",
" ]^                     ",
" /(         _:<[}|1     ",
" 23        45    &6     ",
" 78       90      >     ",
" ab      cd       e     ",
" fg      hb             ",
" gij     klm            ",
"  n>o   pqr             ",
"   jst  uvw             ",
"     xy[zAB             ",
"         CD             ",
"         EFj       G    ",
"          Hg      I     ",
"           JeK  LM      ",
"             ,NO        ",
"                        ",
"                        ",
"                        ",
"                        "};
